<?xml version="1.0" standalone="no"?>
<!DOCTYPE svg PUBLIC "-//W3C//DTD SVG 20010904//EN"
 "http://www.w3.org/TR/2001/REC-SVG-20010904/DTD/svg10.dtd">
<svg version="1.0" xmlns="http://www.w3.org/2000/svg"
 width="900.000000pt" height="840.000000pt" viewBox="0 0 900.000000 840.000000"
 preserveAspectRatio="xMidYMid meet">

<g transform="translate(0.000000,840.000000) scale(0.100000,-0.100000)"
fill="#000000" stroke="none">
<path d="M2252 8233 c-11 -16 -60 -95 -111 -177 -111 -180 -237 -349 -323
-433 l-63 -61 -65 10 c-89 13 -209 3 -375 -31 -159 -33 -205 -50 -359 -129
-97 -49 -123 -68 -217 -161 -154 -152 -164 -179 -189 -471 -12 -139 -35 -261
-55 -301 -8 -15 -63 -92 -123 -171 -167 -224 -174 -236 -183 -331 -16 -166
-13 -191 28 -252 44 -67 159 -168 228 -201 55 -26 127 -31 185 -13 19 6 94 12
165 14 147 4 290 22 510 67 104 21 182 30 255 31 139 2 180 -16 245 -105 86
-119 103 -137 157 -155 35 -13 62 -31 87 -61 28 -33 37 -39 41 -26 5 12 21 -2
64 -55 48 -61 60 -70 73 -60 12 10 16 10 24 -2 5 -8 9 -19 9 -25 0 -28 95
-142 177 -213 49 -43 124 -119 165 -167 113 -134 293 -301 441 -412 72 -54
182 -139 243 -188 62 -49 175 -129 253 -178 205 -129 214 -138 235 -232 24
-109 39 -320 31 -439 -4 -55 -15 -170 -26 -255 -21 -172 -25 -353 -8 -415 6
-22 36 -94 67 -160 l57 -120 -1 -145 c-1 -80 -13 -260 -28 -400 -52 -491 -75
-605 -142 -698 -57 -79 -83 -144 -101 -248 -14 -85 -15 -109 -5 -155 7 -30 16
-60 21 -68 12 -19 229 -70 327 -78 151 -11 283 49 328 150 23 53 88 121 109
114 7 -2 13 -22 15 -45 3 -45 -6 -40 105 -57 18 -3 55 -1 82 4 43 8 58 18 110
73 l60 63 19 115 c21 132 61 277 82 301 22 24 17 85 -17 205 -58 208 -70 270
-89 489 -24 261 -25 371 -5 445 21 79 19 138 -10 228 -46 144 -46 161 -25 465
30 424 49 595 71 672 28 94 43 120 76 133 15 6 152 21 303 32 151 11 325 27
385 35 275 36 640 60 745 50 l65 -7 45 -66 c25 -37 113 -137 195 -222 169
-174 257 -296 348 -481 128 -261 164 -440 174 -874 7 -313 -4 -440 -56 -633
-46 -167 -102 -335 -133 -397 -34 -66 -86 -122 -215 -232 -136 -116 -177 -160
-217 -233 l-27 -50 28 -11 c89 -34 263 -80 321 -85 67 -6 67 -5 121 35 32 25
64 41 81 41 51 0 204 31 247 50 39 17 43 22 43 54 0 20 -5 67 -12 105 -15 86
-8 95 75 119 62 17 67 21 158 125 l42 48 -12 70 c-8 44 -11 100 -6 152 13 160
36 333 56 417 29 128 109 361 125 367 25 10 52 -27 78 -106 37 -110 55 -249
62 -471 7 -215 -2 -317 -37 -394 -14 -34 -23 -81 -29 -160 -10 -150 -61 -277
-129 -325 -44 -31 -183 -313 -164 -332 14 -14 195 -80 272 -100 137 -35 246
-18 358 56 l52 34 -1 109 c0 137 10 161 98 237 87 75 93 84 94 118 0 15 7 42
16 59 14 27 20 30 48 25 52 -8 59 2 54 79 -3 47 -15 93 -38 144 -17 41 -45
105 -61 142 -47 109 -62 234 -63 543 -1 236 1 279 18 345 17 65 20 115 21 370
2 276 4 298 24 348 38 94 28 122 -74 222 -76 75 -188 204 -232 270 -32 47
-258 432 -286 487 -14 27 -15 32 -2 37 19 7 11 56 -21 118 -13 26 -24 50 -24
54 0 3 15 3 34 0 l35 -7 -11 38 c-6 21 -16 50 -24 65 -18 34 -17 38 1 38 8 0
15 1 15 3 0 1 -7 27 -15 57 -8 30 -15 56 -15 58 0 1 11 0 25 -4 25 -6 25 -5
19 34 -8 49 44 280 87 389 16 40 71 157 122 260 152 304 194 441 205 658 l7
130 50 5 50 5 -3 66 -2 65 35 17 c43 20 44 31 5 54 -16 9 -30 21 -30 25 0 4
16 25 35 46 l34 39 -49 23 c-28 13 -50 25 -50 28 0 2 23 31 51 63 l51 59 -31
0 c-17 0 -31 3 -31 7 0 4 20 32 43 62 59 75 60 79 92 211 15 63 38 142 52 175
31 72 39 156 25 248 -14 86 -40 141 -69 145 -18 3 -28 -8 -53 -59 -41 -79
-120 -199 -133 -199 -13 0 -2 76 29 195 14 53 23 99 20 102 -10 10 -68 -10
-97 -34 -40 -34 -54 -64 -80 -167 -12 -48 -24 -84 -27 -82 -2 3 -8 43 -11 88
l-7 83 -28 -55 c-16 -30 -34 -58 -41 -62 -7 -5 -37 -28 -67 -52 l-55 -44 -11
-129 c-6 -70 -14 -172 -17 -227 -8 -159 -26 -182 -150 -185 -62 -1 -114 22
-252 113 -262 172 -631 298 -913 313 -242 12 -843 -77 -1185 -177 -258 -75
-222 -72 -845 -78 -855 -8 -867 -8 -1125 22 -298 35 -567 73 -599 86 -26 9
-396 328 -396 340 0 3 28 27 63 52 58 43 329 309 394 388 89 106 124 187 148
342 19 123 19 157 0 164 -27 11 -99 -34 -220 -136 -80 -67 -153 -119 -220
-154 -55 -29 -138 -78 -185 -108 -47 -31 -114 -70 -149 -88 -63 -31 -64 -31
-58 -8 3 13 11 59 17 103 7 44 30 136 52 205 48 150 56 261 25 343 -28 71 -71
87 -105 40z"/>
</g>
</svg>
